<svg height="64" viewBox="0 0 64 64" width="64" xmlns="http://www.w3.org/2000/svg"><g fill="none" fill-rule="evenodd"><path d="m0 0h64v64h-64z"/><path d="m23 4.25305857v.24321237c0 1.44985843-1.0368716 2.69225117-2.4633437 2.95160973l-8.5366563 1.55211933.0464712 11.6674172-.0464712-11.36936636c0-1.78124892 0-3.56249784 0-5.34374676 0-.95995048.6820329-1.78450769 1.6249541-1.96452044l7-1.33636752c.1236205-.02360035.2491928-.03547956.3750459-.03547956 1.1045695 0 2 .8954305 2 2zm-11 24.82414243c0-.7348001.0464712-8.4072028.0464712-8.4072028s-.0464712 7.3300018-.0464712 9.8300018v1.5973397c0 2.2174432-1.7438606 4.4213402-3.89502158 4.9346168 0 0-2.10497842.9680435-4.60497842-.0319565s-3.5-4.5-1-6.5 9.4535288-.8000031 9.5-4.3000031 0 3.4998485 0 2.8772041z" stroke="#00244d" stroke-opacity=".25" stroke-width="2" transform="translate(20 13)"/></g></svg>