<svg width="2701" height="685" viewBox="0 0 2701 685" fill="none" xmlns="http://www.w3.org/2000/svg">
<g clip-path="url(#clip0_352_80)">
<g filter="url(#filter0_d_352_80)">
<mask id="mask0_352_80" style="mask-type:alpha" maskUnits="userSpaceOnUse" x="334" y="16" width="646" height="647">
<rect x="334.014" y="16.6509" width="645.463" height="645.463" rx="148.953" fill="#910002"/>
</mask>
<g mask="url(#mask0_352_80)">
<g filter="url(#filter1_i_352_80)">
<rect x="334.014" y="16.6509" width="645.463" height="645.463" rx="148.384" fill="#910002"/>
</g>
<path d="M919.052 29.6378C918.951 29.788 912.657 29.8881 905.153 29.9382L891.506 29.9883L885.563 35.5458C874.635 45.8597 865.117 54.2211 849.355 67.3388C839.283 75.7001 840.139 75.2996 830.218 76.6514C817.125 78.4538 800.355 79.6555 775.377 80.5066C756.089 81.1575 665.543 80.8571 638.651 80.0059C542.565 76.9518 451.969 72.0952 404.58 67.3388L398.89 66.788L388.365 55.9734C382.624 50.0154 375.624 42.5553 372.804 39.401C366.206 31.9409 364.947 31.24 358.904 31.5404C355.329 31.6906 353.516 32.0411 350.343 33.2927C343.192 36.1466 337.199 41.4037 335.94 46.0099C335.487 47.6622 335.588 48.3131 336.494 50.1656C338.106 53.5201 354.775 69.2414 372.904 84.512C374.415 85.8138 374.516 86.0641 376.782 96.7285C391.789 167.775 389.271 281.228 371.444 336.803C367.616 348.769 363.991 356.53 358.854 363.69C356.386 367.144 357.142 366.844 345.559 368.897C338.156 370.198 335.94 371.15 334.782 373.553C333.624 375.956 333.775 377.709 335.235 379.11C336.948 380.863 339.415 380.763 349.739 378.359C354.473 377.208 359.005 376.207 359.71 376.056C361.926 375.556 370.437 381.163 379.552 389.024C404.026 410.203 441.343 452.209 473.019 494.266C506.004 538.025 528.565 575.877 531.889 592.95L532.443 595.904L527.709 607.219C521.162 622.74 520.558 625.143 520.558 636.208C520.558 646.122 521.112 648.975 524.083 655.084C526.148 659.239 529.522 662.544 532.241 663.044C539.594 664.396 546.493 654.032 550.673 635.207C551.378 632.053 552.234 627.546 552.536 625.193C553.09 621.288 556.061 612.726 561.248 600.159L562.407 597.456L571.421 592.799C627.018 564.361 736.65 525.008 825.736 501.476C881.132 486.906 927.21 479.196 949.217 480.948C954.052 481.299 955.21 481.599 957.527 482.901C961.052 484.853 962.563 485.154 965.03 484.453C969.21 483.201 973.088 477.293 975.455 468.481C976.563 464.426 976.714 462.623 976.764 455.964C976.814 446.852 975.807 442.546 972.937 439.292C971.225 437.439 958.937 431.281 893.218 399.638C881.887 394.181 872.52 389.625 872.419 389.575C872.117 389.374 870.355 382.265 868.844 375.105C861.24 339.657 855.348 286.786 852.125 226.154C851.268 209.832 850.966 158.061 851.621 144.543C852.678 123.415 854.542 107.393 857.11 97.3794L857.966 94.075L875.592 81.9085C899.362 65.5364 916.232 53.2698 928.419 43.5566C940.052 34.2941 943.678 31.1398 943.275 30.6892C942.369 29.7379 919.959 28.7867 919.052 29.6378ZM430.666 87.9667C563.666 98.0303 746.42 102.436 809.118 97.1792L813.146 96.8287L800.556 106.992C782.125 121.913 763.19 137.634 751.355 147.998C744.406 154.006 740.176 157.361 738.866 157.811C735.945 158.813 723.053 161.366 716.204 162.317C679.09 167.224 622.737 166.273 554.047 159.513C531.335 157.31 491.551 152.304 487.824 151.202C487.27 151.052 485.911 150.101 484.803 149.149C481.781 146.496 437.213 104.289 427.645 94.9762L419.336 86.9653L421.602 87.2157C422.861 87.3659 426.94 87.6663 430.666 87.9667ZM410.019 114.503C416.818 119.91 434.443 133.628 449.199 144.994C463.954 156.359 476.242 166.072 476.494 166.573C477.199 167.875 478.911 180.993 479.515 189.854C480.22 199.918 480.22 226.404 479.515 238.921C477.501 276.021 472.213 308.715 465.616 325.137C464.861 326.99 463.048 330.545 461.537 332.948C459.019 337.104 458.868 337.504 459.623 338.305C460.379 339.156 460.379 339.257 459.522 339.507C433.94 346.917 383.53 360.836 382.12 360.836C382.019 360.836 382.825 358.733 383.933 356.179C393.149 335.051 400.048 299.703 403.221 257.446C406.746 210.032 404.983 155.558 398.537 113.601C397.731 108.595 397.228 104.539 397.379 104.589C397.53 104.689 403.221 109.145 410.019 114.503ZM835.355 116.305C829.765 166.022 833.038 257.246 843.11 333.048C844.822 345.866 847.441 362.238 849.355 372.051C850.06 375.656 850.563 378.61 850.463 378.71C850.412 378.81 839.887 373.903 827.146 367.795L803.981 356.73L794.866 329.343C782.175 291.342 777.844 277.123 772.355 255.243C762.888 217.542 760.067 188.503 764.046 169.126C766.111 159.063 765.607 159.764 775.629 152.204C791.341 140.287 835.506 108.895 835.959 109.245C836.06 109.346 835.758 112.5 835.355 116.305ZM515.019 173.582C528.767 175.735 574.997 180.091 602.644 181.794C642.982 184.297 687.197 184.147 710.564 181.393C713.384 181.043 715.701 180.892 715.701 180.993C715.701 181.143 713.838 183.195 711.521 185.549C702.607 194.761 694.147 205.025 690.32 211.233C687.55 215.689 687.701 215.639 676.974 217.842C662.874 220.796 644.392 222.799 619.011 224.151C608.737 224.702 571.169 224.852 567.493 224.351C565.328 224.051 564.169 223.049 538.839 199.518C524.385 186.049 512.047 174.584 511.493 174.033C510.335 172.882 510.587 172.882 515.019 173.582ZM744.204 190.505C744.204 204.424 744.809 211.033 747.478 226.654C752.262 254.642 760.924 286.385 776.132 331.496C778.6 338.906 780.564 345.064 780.463 345.165C780.413 345.265 774.118 342.411 766.513 338.806L752.715 332.297L750.6 327.891C749.442 325.488 742.693 311.819 735.643 297.5C722.046 269.863 720.082 265.607 716.255 255.994C711.32 243.727 708.651 233.514 708.6 227.005C708.6 224.852 709.154 220.947 709.909 217.392L711.269 211.384L715.147 206.627C719.73 200.919 730.406 189.955 738.262 182.795C741.384 179.941 744.003 177.588 744.053 177.588C744.104 177.588 744.154 183.396 744.204 190.505ZM507.968 190.305C522.069 201.27 546.493 220.696 546.493 220.947C546.493 221.197 544.982 221.047 540.551 220.296C538.889 220.045 538.99 220.145 545.788 229.458C549.867 234.966 552.99 239.822 553.443 241.124C554.651 244.779 554.45 259.148 553.09 268.21C551.076 281.679 547.047 296.649 543.472 303.959C542.666 305.661 540.4 309.216 538.486 311.92C536.572 314.623 534.91 317.027 534.81 317.277C534.709 317.527 527.205 319.88 518.04 322.484C508.925 325.087 497.242 328.442 492.105 329.944C486.968 331.496 482.738 332.648 482.688 332.648C482.637 332.598 483.393 330.345 484.35 327.591C490.443 310.267 495.278 280.127 497.695 244.428C498.4 234.164 498.601 201.67 497.997 190.205C497.695 184.047 497.745 182.595 498.249 182.895C498.601 183.095 502.983 186.45 507.968 190.305ZM669.068 245.78C665.895 251.087 663.327 254.792 662.471 255.293C660.658 256.445 653.457 258.798 646.96 260.4C634.773 263.454 622.838 264.355 613.773 263.003C610.752 262.553 608.032 262.002 607.73 261.802C605.363 260.049 587.335 245.079 586.579 244.228L585.622 243.177H593.63C615.486 243.177 649.377 240.873 666.6 238.22C669.924 237.719 672.996 237.269 673.449 237.219C674.054 237.168 672.694 239.772 669.068 245.78ZM698.931 262.152C702.96 272.266 709.507 286.485 717.665 302.607C720.989 309.316 723.758 314.824 723.758 314.924C723.758 315.024 721.794 315.074 719.377 315.024C715.046 314.924 714.643 314.824 704.37 310.668C698.579 308.315 690.874 305.311 687.248 304.009C683.672 302.757 680.248 301.506 679.694 301.305C678.938 301.005 678.233 299.653 677.277 296.699C675.111 289.99 674.305 284.332 674.507 277.223L674.708 270.914L680.147 260.2C686.089 248.534 686.19 248.334 689.464 243.777L691.73 240.623L693.643 247.232C694.751 250.887 697.068 257.596 698.931 262.152ZM579.529 249.285C583.104 252.689 590.205 258.898 595.241 263.154L604.356 270.864L605.414 275.37C606.622 280.427 606.773 288.087 605.766 295.447L605.162 299.903L601.637 300.855C597.658 301.856 561.047 310.768 560.795 310.768C560.695 310.768 561.047 309.767 561.601 308.515C564.673 301.405 568.5 287.336 570.414 276.071C572.176 265.757 572.781 258.547 572.579 250.286C572.479 246.381 572.529 243.177 572.68 243.177C572.831 243.177 575.903 245.93 579.529 249.285ZM647.061 281.328C644.342 285.884 644.795 285.734 640.212 283.531C636.032 281.478 635.529 280.777 638.298 280.677C639.205 280.677 641.723 280.277 643.939 279.776C646.154 279.326 648.068 278.975 648.169 279.075C648.27 279.125 647.766 280.127 647.061 281.328ZM630.593 291.242C630.593 291.592 624.903 293.795 624.701 293.545C624.55 293.445 624.651 291.993 624.852 290.29L625.205 287.286L627.874 289.139C629.385 290.14 630.593 291.091 630.593 291.242ZM657.284 292.944C657.636 294.596 657.586 294.746 656.529 294.746C654.867 294.746 654.564 293.995 655.572 292.243C656.629 290.541 656.73 290.591 657.284 292.944ZM638.651 302.407C636.888 303.558 635.378 304.76 635.277 305.06C635.176 305.361 636.687 307.363 638.651 309.566L642.226 313.522L641.874 319.029C641.32 327.941 640.967 331.045 640.413 330.795C640.162 330.645 638.852 328.142 637.593 325.238C635.025 319.38 632.104 313.872 628.73 308.565C627.471 306.713 626.615 305.06 626.766 304.91C626.917 304.76 629.586 303.909 632.708 303.008C635.831 302.106 638.953 301.105 639.658 300.855C642.126 299.803 641.824 300.304 638.651 302.407ZM607.176 311.92C609.191 313.322 611.004 315.224 612.615 317.527C615.737 322.083 622.133 334.951 623.845 340.058C625.104 343.963 625.155 344.313 624.802 352.424C624.651 357.081 624.651 360.836 624.903 360.836C625.104 360.836 627.119 359.684 629.334 358.332C631.55 356.93 633.464 355.829 633.665 355.829C634.169 355.829 621.982 389.224 620.572 391.728C620.219 392.428 620.068 392.378 619.766 391.327C619.565 390.676 617.852 386.971 615.939 383.116C606.27 363.339 591.061 342.311 573.587 324.537C569.759 320.681 566.637 317.477 566.637 317.427C566.637 317.177 601.687 309.917 603.399 309.817C603.802 309.817 605.514 310.768 607.176 311.92ZM672.644 316.776C688.003 318.278 687.802 318.178 680.953 319.53C673.147 321.082 665.845 322.834 658.341 325.037C654.917 325.989 652.047 326.74 651.946 326.64C651.845 326.589 652.097 324.386 652.5 321.783C652.903 319.179 653.255 316.776 653.255 316.426C653.255 315.174 656.176 315.224 672.644 316.776ZM547.752 325.939C549.716 327.34 554.198 331.346 557.774 334.801C575.299 351.673 591.917 374.554 600.68 393.83C605.565 404.645 607.428 411.705 607.428 419.665C607.428 424.422 607.378 424.572 604.356 431.832C601.083 439.642 586.227 474.239 584.011 479.196L582.702 482.15L578.27 473.188C570.364 457.116 561.551 442.346 546.745 420.166C527.004 390.576 506.407 363.139 487.17 340.658C486.767 340.208 486.515 339.707 486.616 339.557C486.868 339.357 520.709 329.443 535.162 325.388C539.04 324.286 542.666 323.385 543.22 323.335C543.774 323.335 545.838 324.487 547.752 325.939ZM722.298 334.801C727.334 336.903 742.895 344.914 751.557 349.921C757.852 353.526 758.557 354.077 757.449 354.377C726.276 363.64 684.377 380.412 640.917 401.04C634.27 404.194 628.73 406.748 628.68 406.648C628.579 406.548 629.637 403.043 630.996 398.787C634.421 388.473 638.903 374.054 643.083 360.085C647.111 346.617 645.55 348.319 657.787 344.363C673.097 339.407 692.787 335.351 708.902 333.849C717.111 333.098 718.269 333.198 722.298 334.801ZM471.307 350.572C498.501 380.863 540.198 440.193 558.076 473.989C566.234 489.51 568.903 496.469 569.759 505.131L570.263 510.488L557.32 539.678C550.22 555.699 544.227 569.218 544.026 569.768C543.723 570.519 543.119 569.618 541.256 565.813C524.939 532.017 484.954 476.092 442.048 426.925C423.113 405.246 402.717 384.418 390.379 374.154C387.76 371.951 385.393 369.998 385.192 369.798C384.94 369.598 386.048 369.097 387.71 368.596C401.206 364.791 435.098 354.878 449.048 350.622C458.465 347.768 466.321 345.465 466.472 345.515C466.673 345.515 468.839 347.818 471.307 350.572ZM788.923 372.702C798.492 378.76 831.074 400.289 831.93 401.09C832.434 401.591 831.981 401.841 829.916 402.342C790.988 411.955 714.895 438.991 619.716 477.043C610.701 480.648 603.248 483.502 603.148 483.402C603.097 483.351 606.924 471.636 611.658 457.466L620.37 431.732L625.356 429.078C628.075 427.626 637.14 423.22 645.449 419.215C689.665 398.086 733.176 380.512 762.031 372.101C768.88 370.148 778.197 367.945 780.111 367.895C780.816 367.845 784.391 369.798 788.923 372.702ZM871.614 427.776C881.283 434.285 897.196 444.95 907.016 451.408L924.844 463.224L921.621 463.575C870.707 469.232 797.988 487.807 707.895 518.249C663.579 533.169 613.773 552.595 581.997 567.315C576.457 569.868 571.874 571.921 571.824 571.921C571.774 571.871 572.882 568.717 574.292 564.862C578.018 554.548 581.191 545.636 587.133 528.813C590.004 520.552 592.975 512.19 593.63 510.238C594.838 506.983 595.04 506.683 597.004 505.932C598.162 505.481 607.831 501.576 618.507 497.27C729.248 452.51 819.643 421.267 853.736 415.96C853.937 415.91 861.995 421.267 871.614 427.776Z" fill="black"/>
</g>
<g filter="url(#filter2_i_352_80)">
<path d="M763.542 462.981C798.336 473.381 802.733 522.074 770.11 538.223C718.829 563.957 660.571 568.652 606.06 552.358C487.76 516.997 420.271 391.959 455.632 273.658C490.994 155.358 616.032 87.8688 734.332 123.23C790.003 139.871 836.361 177.101 864.933 227.335C876.084 247.093 869.21 272.202 849.626 282.773C829.868 293.923 805.339 287.223 794.188 267.465C775.953 235.482 746.479 211.511 711.105 200.937C635.137 178.23 555.873 221.499 533.339 296.886C510.805 372.273 553.321 451.944 629.288 474.651C664.082 485.052 700.95 482.174 733.746 465.446C743.365 460.74 753.683 460.034 763.542 462.981Z" fill="white"/>
</g>
<path d="M1247.83 214.073H1086.64V293.166H1219.29C1237.82 293.166 1252.83 308.183 1252.83 326.705C1252.83 345.227 1237.82 360.245 1219.29 360.245H1086.64V438.837H1247.83C1266.35 438.837 1281.37 453.854 1281.37 472.376C1281.37 490.898 1266.35 505.916 1247.83 505.916H1053.1C1047.09 505.916 1041.59 504.914 1037.08 501.911C1035.08 500.91 1033.08 499.908 1031.57 498.407C1030.07 496.905 1028.57 495.403 1027.07 493.901C1022.06 487.894 1019.56 480.886 1019.56 472.376V180.534C1019.56 172.524 1022.06 165.015 1027.07 159.008C1028.57 157.507 1030.07 156.005 1031.57 154.503C1033.08 153.001 1035.08 152 1037.08 150.999C1041.59 148.496 1047.09 146.994 1053.1 146.994H1247.83C1266.35 146.994 1281.37 162.012 1281.37 180.534C1281.37 199.055 1266.35 214.073 1247.83 214.073ZM1590.96 145.493C1609.48 145.493 1624.5 160.51 1624.5 179.533C1624.5 198.054 1609.48 213.072 1590.96 213.072H1501.86V471.375C1501.86 489.897 1486.84 504.914 1468.32 504.914C1449.79 504.914 1434.78 489.897 1434.78 471.375V213.072H1346.17C1327.65 213.072 1312.63 198.054 1312.63 179.533C1312.63 160.51 1327.65 145.493 1346.17 145.493H1590.96ZM1958.02 451.351C1969.53 465.869 1967.53 486.893 1953.01 498.407C1947 503.413 1939.49 505.916 1931.99 505.916C1922.47 505.916 1912.46 501.911 1905.96 493.901L1790.82 353.737L1739.26 407.8V472.376C1739.26 490.898 1724.24 505.916 1705.72 505.916C1687.2 505.916 1672.18 490.898 1672.18 472.376V180.534C1672.18 162.012 1687.2 146.994 1705.72 146.994C1724.24 146.994 1739.26 162.012 1739.26 180.534V311.187L1887.43 157.006C1900.45 143.991 1921.47 143.49 1934.99 156.506C1948 169.02 1948.51 190.545 1935.49 203.561L1837.88 305.18L1958.02 451.351ZM2352.13 457.359C2360.64 473.878 2354.14 493.901 2337.62 502.411C2321.1 510.921 2300.57 503.913 2292.56 487.394L2269.04 441.34H2078.81L2055.29 487.394C2049.78 499.408 2037.77 505.916 2025.75 505.916C2000.72 505.916 1984.2 479.384 1995.72 457.359L2143.89 165.015C2144.39 164.515 2144.39 164.014 2144.89 163.514C2144.89 163.013 2145.39 163.013 2145.39 162.513C2146.89 160.51 2148.4 158.508 2150.4 156.506C2150.4 156.005 2150.9 156.005 2151.4 155.504C2151.9 155.004 2152.4 154.503 2152.9 154.003C2153.4 154.003 2153.9 153.502 2154.4 153.001C2154.9 152.501 2155.4 152.501 2155.4 152C2157.91 150.498 2160.41 149.497 2162.91 148.496C2163.41 148.496 2163.41 148.496 2163.91 148.496C2164.41 147.996 2165.42 147.996 2165.92 147.495C2166.92 147.495 2167.42 147.495 2167.92 147.495C2168.42 146.994 2168.92 146.994 2169.42 146.994C2170.92 146.994 2172.42 146.994 2173.43 146.994C2173.93 146.494 2173.93 146.494 2173.93 146.494L2174.43 146.994C2175.43 146.994 2176.93 146.994 2177.93 146.994C2177.93 146.994 2178.43 146.994 2178.93 146.994C2179.93 147.495 2180.93 147.495 2182.44 147.996H2182.94C2183.94 148.496 2185.44 148.496 2186.44 148.997C2186.94 149.497 2187.44 149.497 2187.44 149.497C2187.94 149.998 2188.44 149.998 2188.94 150.498C2189.44 150.498 2189.94 150.498 2189.94 150.999C2190.45 150.999 2190.95 151.5 2190.95 151.5C2191.95 152 2192.95 152.501 2193.95 153.502C2198.45 157.006 2201.96 161.011 2204.46 166.017C2203.96 166.017 2203.96 165.516 2203.96 165.516L2352.13 457.359ZM2113.35 374.261H2234.5L2173.93 254.621L2113.35 374.261Z" fill="white"/>
</g>
</g>
<defs>
<filter id="filter0_d_352_80" x="324.307" y="16.6509" width="2046.04" height="664.875" filterUnits="userSpaceOnUse" color-interpolation-filters="sRGB">
<feFlood flood-opacity="0" result="BackgroundImageFix"/>
<feColorMatrix in="SourceAlpha" type="matrix" values="0 0 0 0 0 0 0 0 0 0 0 0 0 0 0 0 0 0 127 0" result="hardAlpha"/>
<feOffset dy="9.70621"/>
<feGaussianBlur stdDeviation="4.8531"/>
<feComposite in2="hardAlpha" operator="out"/>
<feColorMatrix type="matrix" values="0 0 0 0 0 0 0 0 0 0 0 0 0 0 0 0 0 0 0.25 0"/>
<feBlend mode="normal" in2="BackgroundImageFix" result="effect1_dropShadow_352_80"/>
<feBlend mode="normal" in="SourceGraphic" in2="effect1_dropShadow_352_80" result="shape"/>
</filter>
<filter id="filter1_i_352_80" x="334.014" y="16.6509" width="645.463" height="674.582" filterUnits="userSpaceOnUse" color-interpolation-filters="sRGB">
<feFlood flood-opacity="0" result="BackgroundImageFix"/>
<feBlend mode="normal" in="SourceGraphic" in2="BackgroundImageFix" result="shape"/>
<feColorMatrix in="SourceAlpha" type="matrix" values="0 0 0 0 0 0 0 0 0 0 0 0 0 0 0 0 0 0 127 0" result="hardAlpha"/>
<feOffset dy="33.9717"/>
<feGaussianBlur stdDeviation="14.5593"/>
<feComposite in2="hardAlpha" operator="arithmetic" k2="-1" k3="1"/>
<feColorMatrix type="matrix" values="0 0 0 0 0 0 0 0 0 0 0 0 0 0 0 0 0 0 0.25 0"/>
<feBlend mode="normal" in2="shape" result="effect1_innerShadow_352_80"/>
</filter>
<filter id="filter2_i_352_80" x="391.496" y="59.0942" width="515.067" height="554.453" filterUnits="userSpaceOnUse" color-interpolation-filters="sRGB">
<feFlood flood-opacity="0" result="BackgroundImageFix"/>
<feBlend mode="normal" in="SourceGraphic" in2="BackgroundImageFix" result="shape"/>
<feColorMatrix in="SourceAlpha" type="matrix" values="0 0 0 0 0 0 0 0 0 0 0 0 0 0 0 0 0 0 127 0" result="hardAlpha"/>
<feOffset dy="9.70621"/>
<feGaussianBlur stdDeviation="4.8531"/>
<feComposite in2="hardAlpha" operator="arithmetic" k2="-1" k3="1"/>
<feColorMatrix type="matrix" values="0 0 0 0 0 0 0 0 0 0 0 0 0 0 0 0 0 0 0.25 0"/>
<feBlend mode="normal" in2="shape" result="effect1_innerShadow_352_80"/>
</filter>
<clipPath id="clip0_352_80">
<rect width="2700.89" height="684.5" fill="white"/>
</clipPath>
</defs>
</svg>
