<svg width="24" height="24" viewBox="0 0 24 24" fill="none" xmlns="http://www.w3.org/2000/svg">
<path d="M1.23757 20.1962C1.36676 20.512 1.68253 20.7273 2.02703 20.7273H8.28539C8.5581 22.5789 10.1658 24 12.0749 24C13.9839 24 15.5916 22.5789 15.8643 20.7273H22.1371C22.1802 20.7273 22.2232 20.7273 22.2663 20.7129C22.582 20.6699 22.8404 20.4546 22.9553 20.1675C23.0701 19.8373 22.984 19.4928 22.74 19.2632C22.7256 19.2488 22.7112 19.2344 22.6969 19.2201C22.6108 19.134 22.2663 18.7464 21.9361 17.9282C21.5773 17.0526 21.1323 15.488 21.1323 13.0622C21.1323 8.26795 19.3237 5.74161 17.8165 4.46408C16.8117 3.61718 15.8069 3.20094 15.1466 2.99997C15.1179 2.41143 14.9744 1.60764 14.4289 0.961706C14.0558 0.516747 13.3524 0 12.1036 0C10.8692 0 10.1658 0.531084 9.79262 0.961706C9.23281 1.62198 9.0749 2.44016 9.06056 3.04303C8.3859 3.244 7.38113 3.66024 6.3907 4.47842C3.62038 6.74638 3.04619 10.3923 3.04619 13.0335C3.04619 15.3876 2.60123 16.9521 2.228 17.8564C1.82611 18.8181 1.43855 19.2488 1.43855 19.2488C1.18017 19.4929 1.10839 19.866 1.23757 20.1962ZM12.0893 22.2775C11.1275 22.2775 10.3094 21.6172 10.051 20.7273H14.1276C13.8692 21.6172 13.051 22.2775 12.0893 22.2775ZM4.76868 13.0335C4.76868 5.31104 9.82129 4.57898 10.0223 4.55026C10.2519 4.52153 10.4672 4.40674 10.6108 4.2201C10.7543 4.03351 10.8118 3.80381 10.7831 3.55983C10.74 3.28712 10.7113 2.48327 11.0988 2.03831C11.1706 1.95219 11.4003 1.67948 12.1036 1.67948C12.8069 1.67948 13.0366 1.95219 13.1227 2.03831C13.4816 2.4546 13.4672 3.24406 13.4242 3.50243C13.3811 3.73208 13.4385 3.97611 13.5821 4.1627C13.7256 4.34929 13.9266 4.47847 14.1706 4.5072C14.185 4.5072 15.4625 4.69378 16.74 5.77034C18.5343 7.27752 19.4386 9.73206 19.4386 13.0622C19.4386 15.9904 19.9984 17.8708 20.5582 19.0191H3.62038C4.1658 17.8278 4.76868 15.9043 4.76868 13.0335Z" fill="white"/>
</svg>
