<svg width="24" height="24" viewBox="0 0 24 24" fill="none" xmlns="http://www.w3.org/2000/svg">
<path d="M12 1.34814C5.37781 1.34814 0 5.56743 0 10.745C0 13.4196 1.43026 15.9226 3.93327 17.7104L3.0751 22.5877C3.01791 22.9167 3.14663 23.2456 3.41837 23.4316C3.56138 23.546 3.74735 23.5889 3.91898 23.5889C4.06199 23.5889 4.20505 23.5603 4.31944 23.4888L10.6556 20.0848C11.1133 20.1277 11.5566 20.142 12 20.142C18.6221 20.142 24 15.9227 24 10.7451C24 5.56748 18.6221 1.34814 12 1.34814ZM12 18.4113C11.5423 18.4113 11.056 18.3827 10.5697 18.3398C10.3981 18.3255 10.2265 18.3541 10.0691 18.4399L5.06316 21.1288L5.70679 17.453C5.76398 17.1097 5.62097 16.7665 5.32061 16.5805C3.01786 15.1074 1.70204 12.9905 1.70204 10.745C1.70204 6.51141 6.32184 3.06447 11.9857 3.06447C17.6496 3.06447 22.2694 6.51141 22.2694 10.745C22.2694 14.9787 17.6639 18.4113 12 18.4113Z" fill="white"/>
</svg>
