<svg width="24" height="24" viewBox="0 0 24 24" fill="none" xmlns="http://www.w3.org/2000/svg">
<g clip-path="url(#clip0_406_286)">
<path d="M12.0002 15.05C13.8228 15.05 15.3002 13.5725 15.3002 11.75C15.3002 9.92736 13.8228 8.44995 12.0002 8.44995C10.1776 8.44995 8.7002 9.92736 8.7002 11.75C8.7002 13.5725 10.1776 15.05 12.0002 15.05Z" stroke="white" stroke-width="1.65" stroke-linecap="round" stroke-linejoin="round"/>
<path d="M20.3846 9.98494L19.1772 7.06928L20.8 5.15L18.6 2.95L16.6912 4.58125L13.7136 3.35671L13.0288 0.75H10.8791L10.184 3.39124L7.27485 4.61756L5.4 2.95L3.2 5.15L4.79871 7.11773L3.60975 10.0409L1 10.65V12.85L3.64122 13.5711L4.86733 16.4797L3.2 18.35L5.4 20.55L7.37028 18.9443L10.2367 20.1235L10.9 22.75H13.1L13.765 20.1245L16.6806 18.917C17.1666 19.2644 18.6 20.55 18.6 20.55L20.8 18.35L19.1675 16.4243L20.3753 13.5078L22.9999 12.8249L23 10.65L20.3846 9.98494Z" stroke="white" stroke-width="1.65" stroke-linecap="round" stroke-linejoin="round"/>
</g>
<defs>
<clipPath id="clip0_406_286">
<rect width="24" height="24" fill="white"/>
</clipPath>
</defs>
</svg>
