<svg width="24" height="24" viewBox="0 0 24 24" fill="none" xmlns="http://www.w3.org/2000/svg">
<path d="M4.05651 11.3706C5.10653 11.3706 5.95773 10.5194 5.95773 9.46935C5.95773 8.41933 5.10653 7.56812 4.05651 7.56812C3.00649 7.56812 2.15527 8.41933 2.15527 9.46935C2.15527 10.5194 3.00649 11.3706 4.05651 11.3706Z" stroke="white" stroke-width="1.35802" stroke-miterlimit="10"/>
<path d="M5.88888 18.8394H2.01852C1.40741 18.8394 1 18.3641 1 17.753V15.8518C1 14.3579 2.15431 13.2036 3.64814 13.2036H6.02468" stroke="white" stroke-width="1.35802" stroke-miterlimit="10"/>
<path d="M12.2035 9.60494C13.8535 9.60494 15.1911 8.26733 15.1911 6.61729C15.1911 4.96726 13.8535 3.62964 12.2035 3.62964C10.5535 3.62964 9.21582 4.96726 9.21582 6.61729C9.21582 8.26733 10.5535 9.60494 12.2035 9.60494Z" stroke="white" stroke-width="1.35802" stroke-miterlimit="10"/>
<path d="M16.6176 19.926H7.51882C6.5682 19.926 5.82129 19.1791 5.82129 18.2285V15.3087C5.82129 13.0001 7.79042 11.0989 10.167 11.0989H14.0373C16.4139 11.0989 18.383 13.0001 18.383 15.3087V18.2285C18.3151 19.1791 17.5682 19.926 16.6176 19.926Z" stroke="white" stroke-width="1.35802" stroke-miterlimit="10"/>
<path d="M19.9442 11.3706C20.9942 11.3706 21.8454 10.5194 21.8454 9.46935C21.8454 8.41933 20.9942 7.56812 19.9442 7.56812C18.8942 7.56812 18.043 8.41933 18.043 9.46935C18.043 10.5194 18.8942 11.3706 19.9442 11.3706Z" stroke="white" stroke-width="1.35802" stroke-miterlimit="10"/>
<path d="M18.1114 18.8394H21.9818C22.5929 18.8394 23.0003 18.3641 23.0003 17.753V15.8518C23.0003 14.3579 21.846 13.2036 20.3521 13.2036H17.9756" stroke="white" stroke-width="1.35802" stroke-miterlimit="10"/>
</svg>
