<svg width="24" height="24" viewBox="0 0 24 24" fill="none" xmlns="http://www.w3.org/2000/svg">
<path d="M11.031 12.0103C10.689 11.273 10.5 10.4315 10.5 9.5C10.5 8.5685 10.689 7.63325 11.031 6.75575C11.3723 5.8775 11.8665 5.05625 12.4777 4.352C13.0882 3.6485 13.8157 3.05975 14.6227 2.64875C15.4305 2.2355 16.3185 2 17.25 2C18.1815 2 19.0695 2.189 19.8773 2.53025C20.685 2.87225 21.4118 3.3665 22.0223 3.977C22.632 4.5875 23.1277 5.315 23.469 6.12275C23.8117 6.92975 24 7.8185 24 8.75C24 9.6815 23.811 10.5703 23.469 11.3773C23.1277 12.185 22.6335 12.9125 22.0223 13.523C21.4125 14.1335 12.8078 21.908 12 22.25C11.1922 21.908 2.5875 14.1335 1.977 13.523C1.3665 12.9125 0.87225 12.185 0.53025 11.3773C0.189 10.5703 0 9.6815 0 8.75C0 7.8185 0.189 6.92975 0.53025 6.12275C0.87225 5.315 1.36575 4.5875 1.977 3.977C2.5875 3.3665 3.315 2.87225 4.12275 2.53025C4.92975 2.189 5.81775 2 6.75 2C7.68225 2 8.57025 2.2355 9.37725 2.64725C10.185 3.05975 10.9118 3.64775 11.523 4.35125C12.1335 5.0555 12.6277 5.87675 12.9697 6.755C13.311 7.63325 13.5 8.5685 13.5 9.5C13.5 10.4315 13.311 11.273 12.9697 12.0103C12.6277 12.7475 12.135 13.3812 11.523 13.8987" fill="#EF4444"/>
</svg>
