<svg width="24" height="24" viewBox="0 0 24 24" fill="none" xmlns="http://www.w3.org/2000/svg">
<g clip-path="url(#clip0_403_98)">
<path d="M24 10.8628L21.4065 8.30532C21.375 8.26632 21.3473 8.22507 21.3113 8.18907L13.0605 -0.0609317C12.4747 -0.646682 11.5253 -0.646682 10.9395 -0.0609317L3.97125 6.90657L0 10.8628H2.25V19.0003C2.25 21.4821 4.26825 23.5003 6.75 23.5003H17.2507C19.7332 23.5003 21.7507 21.4821 21.7507 19.0003V10.8628H24ZM18.7507 19.0003C18.7507 19.8283 18.078 20.5003 17.2507 20.5003H14.25V11.5003H9.75V20.5003H6.75C5.92275 20.5003 5.25 19.8283 5.25 19.0003V9.87132L12 3.12132L18.7507 9.87132V19.0003Z" fill="white"/>
</g>
<defs>
<clipPath id="clip0_403_98">
<rect width="24" height="24" fill="white"/>
</clipPath>
</defs>
</svg>
