<svg width="24" height="24" viewBox="0 0 24 24" fill="none" xmlns="http://www.w3.org/2000/svg">
<path d="M2.7518 12.844L2.17022 16.1064C2.1135 16.4327 2.24116 16.7589 2.51064 16.9433C2.65247 17.0568 2.8369 17.0994 3.00712 17.0994C3.14894 17.0994 3.29082 17.071 3.40426 17.0001L6.80852 15.1703C7.5461 18.3618 11.0922 20.7873 15.3333 20.7873C15.6312 20.7873 15.9291 20.7732 16.227 20.7448L20.61 23.0994C20.7376 23.1703 20.8794 23.1986 21.0071 23.1986C21.1773 23.1986 21.3617 23.1419 21.5036 23.0426C21.7731 22.8582 21.9007 22.532 21.844 22.2057L21.2624 18.9433C23.0071 17.6525 24 15.8653 24 13.9504C24 10.773 21.2057 8.00707 17.305 7.28367C16.9362 3.78013 13.2057 1 8.6667 1C3.88652 1 0 4.06384 0 7.83686C0.0141677 9.76598 1.00711 11.5674 2.7518 12.844ZM22.3121 13.9504C22.3121 15.4397 21.4326 16.8582 19.8865 17.8369C19.6028 18.0213 19.4468 18.3617 19.5036 18.7021L19.8724 20.7731L16.8085 19.1276C16.6525 19.0425 16.4823 19.0142 16.3121 19.0284C15.9858 19.0568 15.6454 19.0851 15.3333 19.0851C11.8298 19.0851 8.92197 17.1702 8.43972 14.6879C8.51066 14.6879 8.59576 14.6879 8.66665 14.6879C12.9504 14.6879 16.5106 12.2198 17.2057 8.99997C20.1986 9.6241 22.3121 11.6525 22.3121 13.9504ZM8.68087 2.7163C12.5248 2.7163 15.6454 5.01418 15.6454 7.85108C15.6454 10.688 12.5248 12.9858 8.68087 12.9858C8.36883 12.9858 8.0284 12.9716 7.70214 12.9291C7.53193 12.9149 7.36172 12.9433 7.20567 13.0284L4.14184 14.6738L4.51065 12.6028C4.56737 12.2624 4.42554 11.922 4.12767 11.7376C2.58158 10.7589 1.70213 9.34044 1.70213 7.85108C1.7163 5.02834 4.83691 2.7163 8.68087 2.7163Z" fill="white"/>
</svg>
