<svg width="24" height="24" viewBox="0 0 24 24" fill="none" xmlns="http://www.w3.org/2000/svg">
<path d="M1.02857 5.31447H22.9714C23.5371 5.31447 24 4.85161 24 4.28589C24 3.72018 23.5371 3.25732 22.9714 3.25732H1.02857C0.462857 3.25732 0 3.72018 0 4.28589C0 4.85161 0.462857 5.31447 1.02857 5.31447Z" fill="white"/>
<path d="M1.02857 13.0286H22.9714C23.5371 13.0286 24 12.5657 24 12C24 11.4343 23.5371 10.9714 22.9714 10.9714H1.02857C0.462857 10.9714 0 11.4343 0 12C0 12.5657 0.462857 13.0286 1.02857 13.0286Z" fill="white"/>
<path d="M1.02857 20.7427H22.9714C23.5371 20.7427 24 20.2798 24 19.7141C24 19.1484 23.5371 18.6855 22.9714 18.6855H1.02857C0.462857 18.6855 0 19.1484 0 19.7141C0 20.2798 0.462857 20.7427 1.02857 20.7427Z" fill="white"/>
</svg>
