<svg width="24" height="24" viewBox="0 0 24 24" fill="none" xmlns="http://www.w3.org/2000/svg">
<path fill-rule="evenodd" clip-rule="evenodd" d="M8.1465 2.13749C6.5417 2.40156 6.19968 3.43907 6.19968 4.575V18.6345C5.70945 18.4845 5.16888 18.4 4.59962 18.4C2.39061 18.4 0.599609 19.6531 0.599609 21.2C0.599609 22.7469 2.39061 24 4.59962 24C6.80863 24 8.59964 22.7469 8.59964 21.2C8.59964 21.0581 8.5797 20.9198 8.55065 20.7837L8.59964 20.8001V9.25717L20.5997 7.54287V17.0346C20.1094 16.8846 19.5689 16.8001 18.9996 16.8001C16.7907 16.8001 14.9996 18.0533 14.9996 19.6001C14.9996 21.147 16.7907 22.4001 18.9996 22.4001C21.1304 22.4001 22.8673 21.2332 22.9879 19.7623L22.9996 19.7651V0L8.1465 2.13749Z" fill="white"/>
</svg>
