<svg width="36" height="36" viewBox="0 0 36 36" fill="none" xmlns="http://www.w3.org/2000/svg">
<rect width="36" height="36" fill="#B1B1B1"/>
<path fill-rule="evenodd" clip-rule="evenodd" d="M19.5976 3.09904C19.8369 2.9636 20.1305 2.9673 20.3663 3.10874L27.9978 7.6877C28.3593 7.90455 28.4764 8.37333 28.2596 8.73473C28.0429 9.09615 27.5741 9.21335 27.2126 8.9965L20.7369 5.11103V25.1315C20.7369 28.5419 18.1668 32 13.8684 32C9.56999 32 7 28.5419 7 25.1315C7 21.7213 9.56999 18.2631 13.8684 18.2631C14.2899 18.2631 14.6316 18.6048 14.6316 19.0263C14.6316 19.4478 14.2899 19.7894 13.8684 19.7894C10.5353 19.7894 8.52631 22.4366 8.52631 25.1315C8.52631 27.8266 10.5353 30.4737 13.8684 30.4737C17.2016 30.4737 19.2105 27.8266 19.2105 25.1315V3.76315C19.2105 3.48821 19.3584 3.23451 19.5976 3.09904Z" fill="#717171"/>
</svg>
