<svg width="24" height="24" viewBox="0 0 24 24" fill="none" xmlns="http://www.w3.org/2000/svg">
<path d="M21.2308 21.6539H2.76923C2.03479 21.6539 1.33042 21.3621 0.811089 20.8428C0.291757 20.3235 0 19.6191 0 18.8847V4.11542C0 3.38098 0.291757 2.67661 0.811089 2.15728C1.33042 1.63795 2.03479 1.34619 2.76923 1.34619H21.2308C21.9652 1.34619 22.6696 1.63795 23.1889 2.15728C23.7082 2.67661 24 3.38098 24 4.11542V18.8847C24 19.6191 23.7082 20.3235 23.1889 20.8428C22.6696 21.3621 21.9652 21.6539 21.2308 21.6539ZM2.76923 3.19235C2.52442 3.19235 2.28963 3.2896 2.11652 3.46271C1.94341 3.63582 1.84615 3.87061 1.84615 4.11542V18.8847C1.84615 19.1295 1.94341 19.3643 2.11652 19.5374C2.28963 19.7105 2.52442 19.8077 2.76923 19.8077H21.2308C21.4756 19.8077 21.7104 19.7105 21.8835 19.5374C22.0566 19.3643 22.1538 19.1295 22.1538 18.8847V4.11542C22.1538 3.87061 22.0566 3.63582 21.8835 3.46271C21.7104 3.2896 21.4756 3.19235 21.2308 3.19235H2.76923Z" fill="white"/>
<path d="M16.6159 10.5768C16.0682 10.5768 15.5328 10.4144 15.0774 10.1101C14.622 9.80581 14.2671 9.37331 14.0575 8.8673C13.8479 8.36129 13.793 7.80449 13.8999 7.26731C14.0067 6.73013 14.2705 6.2367 14.6578 5.84942C15.0451 5.46214 15.5385 5.19839 16.0757 5.09154C16.6128 4.98469 17.1696 5.03953 17.6757 5.24913C18.1817 5.45872 18.6142 5.81366 18.9184 6.26906C19.2227 6.72446 19.3851 7.25986 19.3851 7.80756C19.3851 8.54201 19.0934 9.24637 18.5741 9.7657C18.0547 10.285 17.3504 10.5768 16.6159 10.5768ZM16.6159 6.88449C16.4333 6.88449 16.2549 6.93862 16.1031 7.04005C15.9513 7.14148 15.833 7.28565 15.7631 7.45432C15.6932 7.62299 15.675 7.80859 15.7106 7.98765C15.7462 8.1667 15.8341 8.33118 15.9632 8.46028C16.0923 8.58937 16.2568 8.67729 16.4358 8.7129C16.6149 8.74852 16.8005 8.73024 16.9692 8.66037C17.1378 8.59051 17.282 8.4722 17.3834 8.3204C17.4849 8.1686 17.539 7.99013 17.539 7.80756C17.539 7.56275 17.4417 7.32796 17.2686 7.15485C17.0955 6.98174 16.8607 6.88449 16.6159 6.88449Z" fill="white"/>
<path d="M21.2301 21.6538C21.0781 21.653 20.9286 21.6147 20.795 21.5422C20.6613 21.4698 20.5476 21.3654 20.464 21.2384L16.4578 15.2384C16.3734 15.1128 16.2593 15.0098 16.1257 14.9386C15.9921 14.8675 15.8431 14.8302 15.6917 14.8302C15.5403 14.8302 15.3912 14.8675 15.2576 14.9386C15.124 15.0098 15.01 15.1128 14.9255 15.2384L14.6117 15.7C14.4674 15.8791 14.2614 15.9979 14.0342 16.0331C13.8069 16.0683 13.5746 16.0174 13.3829 15.8904C13.1912 15.7634 13.0538 15.5693 12.9977 15.3463C12.9415 15.1232 12.9706 14.8873 13.0794 14.6846L13.384 14.2138C13.6366 13.833 13.9795 13.5206 14.3822 13.3045C14.7848 13.0884 15.2347 12.9753 15.6917 12.9753C16.1487 12.9753 16.5985 13.0884 17.0012 13.3045C17.4038 13.5206 17.7468 13.833 17.9994 14.2138L21.9963 20.2231C22.1299 20.4266 22.1777 20.6746 22.1293 20.9132C22.0809 21.1518 21.9402 21.3616 21.7378 21.4969C21.5892 21.601 21.4116 21.6559 21.2301 21.6538Z" fill="white"/>
<path d="M2.76993 21.6536C2.59306 21.6531 2.42004 21.6018 2.27147 21.5059C2.06609 21.3734 1.92162 21.165 1.8697 20.9262C1.81779 20.6874 1.86269 20.4378 1.99454 20.232L7.74531 11.352C7.9949 10.9664 8.3365 10.6488 8.73935 10.4281C9.1422 10.2073 9.59364 10.0902 10.053 10.0874C10.5098 10.0872 10.9596 10.2001 11.3623 10.4159C11.7649 10.6317 12.1079 10.9438 12.3607 11.3243L18.2869 20.2228C18.3956 20.4255 18.4247 20.6614 18.3686 20.8845C18.3124 21.1075 18.175 21.3015 17.9833 21.4286C17.7916 21.5556 17.5593 21.6065 17.3321 21.5713C17.1048 21.5361 16.8988 21.4173 16.7545 21.2382L10.8192 12.3489C10.7355 12.222 10.6218 12.1176 10.4882 12.0451C10.3545 11.9727 10.205 11.9343 10.053 11.9336C9.90012 11.9353 9.75008 11.9751 9.61635 12.0492C9.48263 12.1233 9.3694 12.2295 9.28685 12.3582L3.54531 21.2289C3.46191 21.3589 3.34722 21.4659 3.21176 21.5401C3.07629 21.6143 2.92438 21.6533 2.76993 21.6536Z" fill="white"/>
</svg>
