<svg width="24" height="24" viewBox="0 0 24 24" fill="none" xmlns="http://www.w3.org/2000/svg">
<path d="M16.7837 7.8976C18.4259 9.35341 19.3687 11.11 19.3687 13.3033C19.3687 17.5349 15.9273 20.9751 11.6968 20.9751C7.46525 20.9751 4.02497 17.5349 4.02497 13.3033C4.02497 11.2548 4.82303 9.32759 6.2721 7.87852L4.13273 5.74027C2.11234 7.76179 1 10.4478 1 13.3044C1 19.2017 5.79731 24.0001 11.6957 24.0001C17.593 24.0001 22.3926 19.2028 22.3926 13.3044C22.3926 10.2457 21.0793 7.66526 18.7907 5.63477L16.7837 7.8976Z" fill="white"/>
<path d="M13.2328 13.1853C13.2328 14.0687 12.4303 14.7836 11.438 14.7836C10.4492 14.7836 9.64551 14.0687 9.64551 13.1853V1.59835C9.64663 0.714994 10.4503 0 11.4392 0C12.4292 0 13.2317 0.714994 13.2317 1.59835V13.1853H13.2328Z" fill="white"/>
</svg>
