<svg width="24" height="24" viewBox="0 0 24 24" fill="none" xmlns="http://www.w3.org/2000/svg">
<path d="M13.574 22.7867C13.3831 23.1411 13.4786 23.5774 13.7785 23.8228C13.9285 23.9455 14.1057 24 14.2829 24C14.4738 24 14.6783 23.9318 14.8283 23.7955C14.9373 23.7001 17.3641 21.5324 19.5318 18.8602C22.6402 15.0291 23.6218 12.1252 22.4221 10.2029C21.3723 8.51234 19.3955 7.32623 16.5461 6.65816C15.0191 6.30367 13.5876 6.18097 12.715 6.15374V0.823108C12.715 0.482286 12.5105 0.182318 12.197 0.0596163C11.8834 -0.063085 11.5289 0.00509844 11.2971 0.250501L1.90366 10.0666C1.75368 10.2302 1.67188 10.4483 1.67188 10.6801C1.67188 10.9119 1.78096 11.1164 1.95818 11.2663L11.2426 19.1737C11.4744 19.3782 11.8016 19.4191 12.0879 19.3101C12.3742 19.1874 12.5651 18.9147 12.5923 18.6148L12.9195 13.6794C13.274 13.6385 13.7648 13.5976 14.2692 13.5976C14.9236 13.5976 16.4778 13.6794 16.6142 14.4838C16.6823 14.8519 16.6687 16.038 15.2508 19.3101C14.4602 21.1506 13.5877 22.773 13.574 22.7867ZM14.2966 11.948C13.1105 11.948 12.0607 12.1525 12.0198 12.1525C11.6517 12.2207 11.3927 12.5343 11.3654 12.9024L11.0927 16.8697L3.70338 10.5847L11.0927 2.86813V6.95818C11.0927 7.1763 11.1745 7.39446 11.3381 7.5444C11.5017 7.69438 11.7062 7.7898 11.9244 7.77618C11.9244 7.77618 11.9517 7.77618 12.0062 7.77618C12.7288 7.77618 19.0547 7.8716 21.0452 11.0755C21.795 12.2889 20.8134 14.6884 18.2776 17.8241C17.8822 18.3149 17.4868 18.7784 17.0778 19.2147C18.0458 16.8698 18.4275 15.2201 18.2503 14.1839C18.0731 13.1614 17.2414 11.948 14.2966 11.948Z" fill="white"/>
</svg>
