<svg width="24" height="24" viewBox="0 0 24 24" fill="none" xmlns="http://www.w3.org/2000/svg">
<path d="M12.1074 12C13.2941 12 14.4541 11.6481 15.4408 10.9888C16.4275 10.3295 17.1966 9.39246 17.6507 8.2961C18.1048 7.19975 18.2236 5.99335 17.9921 4.82946C17.7606 3.66557 17.1892 2.59648 16.3501 1.75736C15.5109 0.918247 14.4418 0.346802 13.278 0.115291C12.1141 -0.11622 10.9077 0.0025997 9.81132 0.456725C8.71496 0.910851 7.77789 1.67989 7.1186 2.66658C6.45932 3.65328 6.10742 4.81331 6.10742 6C6.10742 7.5913 6.73956 9.11742 7.86478 10.2426C8.99 11.3679 10.5161 12 12.1074 12ZM12.1074 1.71429C12.9551 1.71429 13.7837 1.96564 14.4884 2.43656C15.1932 2.90748 15.7425 3.57682 16.0669 4.35993C16.3913 5.14304 16.4762 6.00476 16.3108 6.8361C16.1454 7.66745 15.7372 8.43109 15.1379 9.03046C14.5385 9.62983 13.7749 10.038 12.9435 10.2034C12.1122 10.3687 11.2505 10.2839 10.4674 9.95949C9.68424 9.63511 9.0149 9.0858 8.54398 8.38102C8.07306 7.67623 7.82171 6.84764 7.82171 6C7.82171 4.86336 8.27324 3.77327 9.07696 2.96954C9.88069 2.16582 10.9708 1.71429 12.1074 1.71429Z" fill="white"/>
<path d="M12.9641 13.7144H11.2499C8.74925 13.7144 6.35105 14.7077 4.58285 16.4759C2.81465 18.2441 1.82129 20.6423 1.82129 23.1429C1.82129 23.3703 1.9116 23.5883 2.07234 23.749C2.23309 23.9098 2.4511 24.0001 2.67843 24.0001H21.5356C21.7629 24.0001 21.9809 23.9098 22.1417 23.749C22.3024 23.5883 22.3927 23.3703 22.3927 23.1429C22.3927 20.6423 21.3994 18.2441 19.6312 16.4759C17.863 14.7077 15.4648 13.7144 12.9641 13.7144ZM3.587 22.2858C3.79777 20.4006 4.69573 18.6592 6.1093 17.3943C7.52287 16.1293 9.35295 15.4295 11.2499 15.4286H12.9641C14.8611 15.4295 16.6911 16.1293 18.1047 17.3943C19.5183 18.6592 20.4162 20.4006 20.627 22.2858H3.587Z" fill="white"/>
</svg>
