<svg width="24" height="24" viewBox="0 0 24 24" fill="none" xmlns="http://www.w3.org/2000/svg">
<g clip-path="url(#clip0_403_215)">
<path d="M18.4159 11.2917L8.64971 5.65267C8.39093 5.50282 8.09123 5.50282 7.83245 5.65267C7.57367 5.80251 7.42383 6.0749 7.42383 6.36094V17.6254C7.42383 17.9114 7.57367 18.1839 7.83245 18.3337C7.95504 18.4018 8.10489 18.4427 8.24108 18.4427C8.37727 18.4427 8.52712 18.4018 8.64971 18.3337L18.4023 12.6946C18.661 12.5448 18.8109 12.2724 18.8109 11.9864C18.8109 11.7003 18.661 11.4416 18.4159 11.2917ZM9.05833 16.2225V7.77752L16.3591 12L9.05833 16.2225Z" fill="white"/>
<path d="M12 0C5.38026 0 0 5.38026 0 12C0 18.6197 5.38026 24 12 24C18.6197 24 24 18.6197 24 12C24 5.38026 18.6197 0 12 0ZM12 22.3654C6.27924 22.3654 1.6345 17.7207 1.6345 12C1.6345 6.27919 6.27924 1.6345 12 1.6345C17.7208 1.6345 22.3655 6.27924 22.3655 12C22.3655 17.7208 17.7208 22.3654 12 22.3654Z" fill="white"/>
</g>
<defs>
<clipPath id="clip0_403_215">
<rect width="24" height="24" fill="white"/>
</clipPath>
</defs>
</svg>
